<svg width="26" height="26" viewBox="0 0 26 26" fill="none" xmlns="http://www.w3.org/2000/svg">
<path d="M20.7917 22.375L14.2292 15.8125C13.7083 16.2292 13.1094 16.559 12.4323 16.8021C11.7552 17.0451 11.0347 17.1667 10.2708 17.1667C8.37847 17.1667 6.77691 16.5113 5.46615 15.2005C4.15538 13.8898 3.5 12.2882 3.5 10.3958C3.5 8.50347 4.15538 6.90191 5.46615 5.59115C6.77691 4.28038 8.37847 3.625 10.2708 3.625C12.1632 3.625 13.7648 4.28038 15.0755 5.59115C16.3863 6.90191 17.0417 8.50347 17.0417 10.3958C17.0417 11.1597 16.9201 11.8802 16.6771 12.5573C16.434 13.2344 16.1042 13.8333 15.6875 14.3542L22.25 20.9167L20.7917 22.375ZM10.2708 15.0833C11.5729 15.0833 12.6797 14.6276 13.5911 13.7161C14.5026 12.8047 14.9583 11.6979 14.9583 10.3958C14.9583 9.09375 14.5026 7.98698 13.5911 7.07552C12.6797 6.16406 11.5729 5.70833 10.2708 5.70833C8.96875 5.70833 7.86198 6.16406 6.95052 7.07552C6.03906 7.98698 5.58333 9.09375 5.58333 10.3958C5.58333 11.6979 6.03906 12.8047 6.95052 13.7161C7.86198 14.6276 8.96875 15.0833 10.2708 15.0833Z" fill="black" stroke="black"/>
</svg>
