<svg width="50" height="50" viewBox="0 0 50 50" fill="none" xmlns="http://www.w3.org/2000/svg">
<mask id="mask0_142_23" style="mask-type:alpha" maskUnits="userSpaceOnUse" x="0" y="0" width="50" height="50">
<rect width="50" height="50" fill="#D9D9D9"/>
</mask>
<g mask="url(#mask0_142_23)">
<path d="M8.33333 6.25L12.5 14.5833H18.75L14.5833 6.25H18.75L22.9167 14.5833H29.1667L25 6.25H29.1667L33.3333 14.5833H39.5833L35.4167 6.25H41.6667C42.8125 6.25 43.7934 6.65799 44.6094 7.47396C45.4254 8.28993 45.8333 9.27083 45.8333 10.4167V39.5833C45.8333 40.7292 45.4254 41.7101 44.6094 42.526C43.7934 43.342 42.8125 43.75 41.6667 43.75H8.33333C7.1875 43.75 6.2066 43.342 5.39062 42.526C4.57465 41.7101 4.16667 40.7292 4.16667 39.5833V10.4167C4.16667 9.27083 4.57465 8.28993 5.39062 7.47396C6.2066 6.65799 7.1875 6.25 8.33333 6.25ZM8.33333 18.75V39.5833H41.6667V18.75H8.33333ZM16.6667 37.5H33.3333V36.3542C33.3333 34.8264 32.5694 33.5938 31.0417 32.6562C29.5139 31.7188 27.5 31.25 25 31.25C22.5 31.25 20.4861 31.7188 18.9583 32.6562C17.4306 33.5938 16.6667 34.8264 16.6667 36.3542V37.5ZM25 29.1667C26.1458 29.1667 27.1267 28.7587 27.9427 27.9427C28.7587 27.1267 29.1667 26.1458 29.1667 25C29.1667 23.8542 28.7587 22.8733 27.9427 22.0573C27.1267 21.2413 26.1458 20.8333 25 20.8333C23.8542 20.8333 22.8733 21.2413 22.0573 22.0573C21.2413 22.8733 20.8333 23.8542 20.8333 25C20.8333 26.1458 21.2413 27.1267 22.0573 27.9427C22.8733 28.7587 23.8542 29.1667 25 29.1667Z" fill="white"/>
</g>
</svg>
