<svg width="120" height="119" viewBox="0 0 120 119" fill="none" xmlns="http://www.w3.org/2000/svg">
<path d="M60 0C26.88 0 0 26.656 0 59.5C0 92.344 26.88 119 60 119C93.12 119 120 92.344 120 59.5C120 26.656 93.12 0 60 0ZM60 23.8C71.58 23.8 81 33.1415 81 44.625C81 56.1085 71.58 65.45 60 65.45C48.42 65.45 39 56.1085 39 44.625C39 33.1415 48.42 23.8 60 23.8ZM60 107.1C47.82 107.1 33.42 102.221 23.16 89.964C33.3 82.11 46.08 77.35 60 77.35C73.92 77.35 86.7 82.11 96.84 89.964C86.58 102.221 72.18 107.1 60 107.1Z" fill="black"/>
</svg>
