<svg width="35" height="38" viewBox="0 0 35 38" fill="none" xmlns="http://www.w3.org/2000/svg">
<path d="M17.4909 0C7.83592 0 0 8.50411 0 18.9824C0 29.4607 7.83592 37.9648 17.4909 37.9648C27.1459 37.9648 34.9818 29.4607 34.9818 18.9824C34.9818 8.50411 27.1459 0 17.4909 0ZM8.74544 9.49119H20.9891V13.2877H8.74544V9.49119ZM8.74544 15.1859H20.9891V18.9824H8.74544V15.1859ZM13.9927 24.6771H8.74544V20.8806H13.9927V24.6771ZM21.0765 31.0552L16.1266 25.6832L18.5928 23.0066L21.059 25.6832L27.2683 18.9824L29.7345 21.6589L21.0765 31.0552Z" fill="black"/>
</svg>
