<svg width="43" height="42" viewBox="0 0 43 42" fill="none" xmlns="http://www.w3.org/2000/svg">
<path d="M8.68758 31.6248C10.4584 30.2707 12.4376 29.203 14.6251 28.4217C16.8126 27.6405 19.1042 27.2498 21.5001 27.2498C23.8959 27.2498 26.1876 27.6405 28.3751 28.4217C30.5626 29.203 32.5417 30.2707 34.3126 31.6248C35.5279 30.2012 36.474 28.5866 37.1511 26.7811C37.8282 24.9755 38.1667 23.0484 38.1667 20.9998C38.1667 16.3818 36.5435 12.4495 33.297 9.20296C30.0504 5.95643 26.1181 4.33317 21.5001 4.33317C16.882 4.33317 12.9497 5.95643 9.70321 9.20296C6.45668 12.4495 4.83341 16.3818 4.83341 20.9998C4.83341 23.0484 5.17196 24.9755 5.84904 26.7811C6.52612 28.5866 7.4723 30.2012 8.68758 31.6248ZM21.5001 23.0832C19.4515 23.0832 17.724 22.38 16.3178 20.9738C14.9115 19.5675 14.2084 17.8401 14.2084 15.7915C14.2084 13.7429 14.9115 12.0155 16.3178 10.6092C17.724 9.20296 19.4515 8.49984 21.5001 8.49984C23.5487 8.49984 25.2761 9.20296 26.6824 10.6092C28.0886 12.0155 28.7917 13.7429 28.7917 15.7915C28.7917 17.8401 28.0886 19.5675 26.6824 20.9738C25.2761 22.38 23.5487 23.0832 21.5001 23.0832ZM21.5001 41.8332C18.6181 41.8332 15.9098 41.2863 13.3751 40.1925C10.8404 39.0988 8.6355 37.6144 6.7605 35.7394C4.8855 33.8644 3.40112 31.6596 2.30737 29.1248C1.21362 26.5901 0.666748 23.8818 0.666748 20.9998C0.666748 18.1179 1.21362 15.4096 2.30737 12.8748C3.40112 10.3401 4.8855 8.13525 6.7605 6.26025C8.6355 4.38525 10.8404 2.90088 13.3751 1.80713C15.9098 0.713379 18.6181 0.166504 21.5001 0.166504C24.382 0.166504 27.0904 0.713379 29.6251 1.80713C32.1598 2.90088 34.3647 4.38525 36.2397 6.26025C38.1147 8.13525 39.599 10.3401 40.6928 12.8748C41.7865 15.4096 42.3334 18.1179 42.3334 20.9998C42.3334 23.8818 41.7865 26.5901 40.6928 29.1248C39.599 31.6596 38.1147 33.8644 36.2397 35.7394C34.3647 37.6144 32.1598 39.0988 29.6251 40.1925C27.0904 41.2863 24.382 41.8332 21.5001 41.8332ZM21.5001 37.6665C23.3404 37.6665 25.0765 37.3974 26.7084 36.8592C28.3404 36.321 29.8334 35.5484 31.1876 34.5415C29.8334 33.5346 28.3404 32.762 26.7084 32.2238C25.0765 31.6856 23.3404 31.4165 21.5001 31.4165C19.6598 31.4165 17.9237 31.6856 16.2917 32.2238C14.6598 32.762 13.1667 33.5346 11.8126 34.5415C13.1667 35.5484 14.6598 36.321 16.2917 36.8592C17.9237 37.3974 19.6598 37.6665 21.5001 37.6665ZM21.5001 18.9165C22.4029 18.9165 23.1494 18.6214 23.7397 18.0311C24.3299 17.4408 24.6251 16.6943 24.6251 15.7915C24.6251 14.8887 24.3299 14.1422 23.7397 13.5519C23.1494 12.9616 22.4029 12.6665 21.5001 12.6665C20.5973 12.6665 19.8508 12.9616 19.2605 13.5519C18.6702 14.1422 18.3751 14.8887 18.3751 15.7915C18.3751 16.6943 18.6702 17.4408 19.2605 18.0311C19.8508 18.6214 20.5973 18.9165 21.5001 18.9165Z" fill="white"/>
</svg>
